<svg xmlns="http://www.w3.org/2000/svg" width="103" height="45" viewBox="0 0 103 45">
  <path id="Logo_TVGO" data-name="Logo TVGO" d="M-11751.8,63A22.372,22.372,0,0,1-11774,40.5,22.369,22.369,0,0,1-11751.8,18h58.586A22.372,22.372,0,0,1-11671,40.5a22.394,22.394,0,0,1-22.3,22.5Zm-8.422-36.953a16.439,16.439,0,0,0-5.934,6.111,17.048,17.048,0,0,0-2.2,8.438,17.046,17.046,0,0,0,2.2,8.436l.094.293a16.431,16.431,0,0,0,4.4,4.848,13.505,13.505,0,0,0,1.246.872c.288.194.669.388.957.582a16.661,16.661,0,0,0,7.465,1.843h.19a16.535,16.535,0,0,0,4.885-.777,16.459,16.459,0,0,0,3.54-1.55c.577-.388,1.053-.777,1.628-1.165a16.5,16.5,0,0,0,4.021-4.558l.288-.388c.1-.194.192-.29.288-.484a16.21,16.21,0,0,0,1.917-6.3c.091-.582.091-1.165.187-1.649a17.058,17.058,0,0,0-2.2-8.438c-.095-.194-.192-.29-.286-.484a16.93,16.93,0,0,0-4.312-4.752c-.479-.293-.86-.582-1.337-.875-.194-.1-.288-.191-.48-.29a16.415,16.415,0,0,0-7.945-2.037h-.193A16,16,0,0,0-11760.221,26.049Zm56.859,13.095a4.157,4.157,0,0,0,2.872,3.976c-1.148.582-2.68,1.745-2.68,3.005a2.26,2.26,0,0,0,1.15,2.136c-1.15.774-2.107,1.55-2.107,2.617,0,1.553,2.012,2.425,5.266,2.425,4.4,0,7.945-1.165,7.85-4.364,0-1.843-1.245-3.588-4.311-3.686l-3.539-.194c-.958-.1-1.245-.388-1.245-.777a1.574,1.574,0,0,1,.48-.872,8.18,8.18,0,0,0,1.627.194c3.253,0,5.358-1.939,5.358-4.558a4.229,4.229,0,0,0-.859-2.521h2.3V34.875l-3.736.484a6.429,6.429,0,0,0-2.968-.678C-11701.063,34.681-11703.361,36.524-11703.361,39.143Zm13.017,2.327a6.407,6.407,0,0,0,6.511,6.691,6.3,6.3,0,0,0,6.51-6.691,6.405,6.405,0,0,0-6.51-6.691A6.407,6.407,0,0,0-11690.345,41.47Zm-35.7-6.5-1.531.484v1.066h1.531v8.534c0,2.231,1.248,3.1,3.162,3.1a6.334,6.334,0,0,0,4.3-1.649l-.1-.678a5.922,5.922,0,0,1-1.819.29c-1.241,0-1.337-.678-1.337-2.327V36.428h2.873V34.974h-2.873v-3.88h-1.053Zm8.041.968c.959.1.959.194,1.343,1.066l4.879,11.058h2.2l3.925-10.959c.384-.971.672-.971,1.913-1.165v-.777h-4.976v.777c1.437.194,1.915.388,1.529,1.359l-2.2,6.109h-.095l-2.394-6.109c-.386-.872,0-1.165,1.436-1.359v-.777h-7.562Zm-25.557,13.481h4.021a15.363,15.363,0,0,1-8.808,5.917A21.9,21.9,0,0,0-11743.563,49.422Zm-13.978,5.141a3.324,3.324,0,0,1-.86-.388c-.286-.194-.572-.29-.862-.484a15.248,15.248,0,0,1-4.689-4.268h4.021a18.867,18.867,0,0,0,4.785,5.917A17.694,17.694,0,0,1-11757.541,54.563Zm6.606-5.141h5.452a17.178,17.178,0,0,1-5.452,5.723Zm-7.085,0h5.46v5.723A17.278,17.278,0,0,1-11758.02,49.422Zm56.668.681a2.571,2.571,0,0,1,.479-1.359l4.406.29c1.053.1,1.722.388,1.722,1.359,0,1.356-1.916,1.649-3.351,1.649C-11699.818,52.042-11701.352,51.558-11701.352,50.1Zm-41.445-2.33a18.085,18.085,0,0,0,1.244-6.3h4.691a14.414,14.414,0,0,1-1.723,6.3Zm-16.081,0a14.746,14.746,0,0,1-1.438-6.3h7.757v6.3Zm7.943-.1V41.372h7.755a17.442,17.442,0,0,1-1.437,6.305Zm-14.071-.1a16.777,16.777,0,0,1-1.339-3.683.358.358,0,0,1-.1-.293.36.36,0,0,1-.095-.29,11.8,11.8,0,0,1-.193-1.843v-.1h4.692a18.248,18.248,0,0,0,1.243,6.207Zm79.066-6.109c0-3.88.767-5.335,2.105-5.335s2.107,1.455,2.107,5.335-.767,5.335-2.107,5.335S-11685.939,45.351-11685.939,41.47Zm-13.5-2.521c0-1.941.48-2.814,1.438-2.814.859,0,1.531.971,1.531,3.393,0,1.553-.194,2.814-1.341,2.814C-11698.574,42.343-11699.53,41.665-11699.437,38.949Zm-42.02.774a20.742,20.742,0,0,0-1.341-6.3h4.307a14.426,14.426,0,0,1,1.725,6.3Zm-9.479,0v-6.3h6.318a17.428,17.428,0,0,1,1.437,6.3Zm-9.477,0a17.268,17.268,0,0,1,1.438-6.3h6.316v6.3Zm-6.319,0a14.4,14.4,0,0,1,1.725-6.3h4.309a20.046,20.046,0,0,0-1.438,6.3Zm15.8-7.952V26.049a17.178,17.178,0,0,1,5.452,5.723Zm7.371-.1a25.823,25.823,0,0,0-4.693-6.013,16.586,16.586,0,0,1,4.5,1.939c.1.1.288.194.382.29.385.293.767.582,1.147.875a15.192,15.192,0,0,1,2.684,2.909Zm-14.456,0a18.24,18.24,0,0,1,5.46-5.723v5.723Zm-5.934,0a15.371,15.371,0,0,1,8.806-5.917,18.867,18.867,0,0,0-4.785,5.917Z" transform="translate(11774.004 -18.001)" fill="#fff"/>
</svg>
