<svg xmlns="http://www.w3.org/2000/svg" width="106.635" height="44.05" viewBox="0 0 106.635 44.05">
  <g id="Grupo_8726" data-name="Grupo 8726" transform="translate(-488.497 -264)">
    <g id="Grupo_3610" data-name="Grupo 3610" transform="translate(492.49 269.636)">
      <path id="Trazado_10761" data-name="Trazado 10761" d="M1393.332,861.754a.338.338,0,0,0,.446-.167l.883-1.946a.337.337,0,1,0-.613-.279l-.884,1.946A.337.337,0,0,0,1393.332,861.754Z" transform="translate(-1388.044 -846.774)" fill="#f5f5f5"/>
      <path id="Trazado_10762" data-name="Trazado 10762" d="M1362.75,835.072a.336.336,0,0,0,.4.251l2.082-.484a.337.337,0,0,0-.153-.655l-2.082.484A.336.336,0,0,0,1362.75,835.072Z" transform="translate(-1360.656 -824.226)" fill="#f5f5f5"/>
      <path id="Trazado_10763" data-name="Trazado 10763" d="M1437.979,859.864a.336.336,0,0,0-.235.413l1.191,4.243a.336.336,0,0,0,.648-.178l-1.19-4.243A.337.337,0,0,0,1437.979,859.864Z" transform="translate(-1428.182 -847.391)" fill="#f5f5f5"/>
      <path id="Trazado_10764" data-name="Trazado 10764" d="M1458,798.306a.336.336,0,0,0,.414.234l4.24-1.2a.336.336,0,0,0-.18-.648l-4.24,1.2A.336.336,0,0,0,1458,798.306Z" transform="translate(-1446.464 -790.49)" fill="#f5f5f5"/>
      <path id="Trazado_10765" data-name="Trazado 10765" d="M1381.63,760.2a.337.337,0,0,0-.056.472l2.037,2.562a.336.336,0,0,0,.528-.416l-2.037-2.562A.336.336,0,0,0,1381.63,760.2Z" transform="translate(-1377.58 -757.556)" fill="#f5f5f5"/>
      <path id="Trazado_10766" data-name="Trazado 10766" d="M1423.125,759.022a.336.336,0,0,0,.317-.354l-.035-2.175a.336.336,0,0,0-.672.037l.036,2.175A.336.336,0,0,0,1423.125,759.022Z" transform="translate(-1414.674 -754.005)" fill="#f5f5f5"/>
      <ellipse id="Elipse_54" data-name="Elipse 54" cx="0.336" cy="0.336" rx="0.336" ry="0.336" transform="translate(4.567 15.524)" fill="#f5f5f5"/>
      <ellipse id="Elipse_55" data-name="Elipse 55" cx="0.336" cy="0.336" rx="0.336" ry="0.336" transform="translate(7.973 0.908)" fill="#f5f5f5"/>
      <ellipse id="Elipse_56" data-name="Elipse 56" cx="0.178" cy="0.178" rx="0.178" ry="0.178" transform="translate(8.131)" fill="#f5f5f5"/>
      <ellipse id="Elipse_57" data-name="Elipse 57" cx="0.178" cy="0.178" rx="0.178" ry="0.178" transform="translate(12.254 3.647)" fill="#f5f5f5"/>
      <ellipse id="Elipse_58" data-name="Elipse 58" cx="0.336" cy="0.336" rx="0.336" ry="0.336" transform="translate(0.867 10.893)" fill="#f5f5f5"/>
      <ellipse id="Elipse_59" data-name="Elipse 59" cx="0.178" cy="0.178" rx="0.178" ry="0.178" transform="translate(0 11.343)" fill="#f5f5f5"/>
      <path id="Trazado_10767" data-name="Trazado 10767" d="M1456.038,840.652a.336.336,0,0,0,.159.449l1.926,1.014a.337.337,0,0,0,.29-.608l-1.926-1.014A.338.338,0,0,0,1456.038,840.652Z" transform="translate(-1444.637 -829.888)" fill="#f5f5f5"/>
      <path id="Trazado_10768" data-name="Trazado 10768" d="M1370.914,799.072a.19.19,0,0,0,.089.255l1.094.576a.191.191,0,0,0,.165-.344l-1.094-.576A.189.189,0,0,0,1370.914,799.072Z" transform="translate(-1368.029 -792.54)" fill="#f5f5f5"/>
      <path id="Trazado_10769" data-name="Trazado 10769" d="M1450.981,779.073a.191.191,0,0,0,.267-.043l.761-.974a.191.191,0,1,0-.309-.223l-.761.974A.189.189,0,0,0,1450.981,779.073Z" transform="translate(-1440.026 -773.456)" fill="#f5f5f5"/>
      <ellipse id="Elipse_60" data-name="Elipse 60" cx="0.336" cy="0.336" rx="0.336" ry="0.336" transform="translate(14.432 12.255)" fill="#f5f5f5"/>
      <ellipse id="Elipse_61" data-name="Elipse 61" cx="0.178" cy="0.178" rx="0.178" ry="0.178" transform="translate(15.62 12.92)" fill="#f5f5f5"/>
    </g>
    <g id="Grupo_3611" data-name="Grupo 3611" transform="translate(567.632 264)">
      <path id="Trazado_10761-2" data-name="Trazado 10761" d="M1393.308,861.441a.3.3,0,0,0,.392-.147l.777-1.711a.3.3,0,1,0-.539-.245l-.777,1.711A.3.3,0,0,0,1393.308,861.441Z" transform="translate(-1388.637 -847.58)" fill="#f5f5f5"/>
      <path id="Trazado_10762-2" data-name="Trazado 10762" d="M1362.749,834.963a.3.3,0,0,0,.355.221l1.831-.426a.3.3,0,0,0-.134-.576l-1.831.426A.3.3,0,0,0,1362.749,834.963Z" transform="translate(-1360.908 -825.004)" fill="#f5f5f5"/>
      <path id="Trazado_10763-2" data-name="Trazado 10763" d="M1437.949,859.863a.3.3,0,0,0-.207.363l1.047,3.73a.3.3,0,0,0,.57-.157l-1.047-3.73A.3.3,0,0,0,1437.949,859.863Z" transform="translate(-1429.293 -848.206)" fill="#f5f5f5"/>
      <path id="Trazado_10764-2" data-name="Trazado 10764" d="M1458,798.109a.3.3,0,0,0,.364.206l3.728-1.056a.3.3,0,1,0-.158-.57l-3.728,1.056A.3.3,0,0,0,1458,798.109Z" transform="translate(-1447.792 -790.961)" fill="#f5f5f5"/>
      <path id="Trazado_10765-2" data-name="Trazado 10765" d="M1381.614,760.192a.3.3,0,0,0-.049.415l1.791,2.252a.3.3,0,1,0,.464-.366l-1.791-2.252A.3.3,0,0,0,1381.614,760.192Z" transform="translate(-1378.035 -757.867)" fill="#f5f5f5"/>
      <path id="Trazado_10766-2" data-name="Trazado 10766" d="M1423.078,758.678a.3.3,0,0,0,.279-.311l-.031-1.912a.3.3,0,1,0-.59.032l.031,1.912A.3.3,0,0,0,1423.078,758.678Z" transform="translate(-1415.615 -754.267)" fill="#f5f5f5"/>
      <ellipse id="Elipse_54-2" data-name="Elipse 54" cx="0.295" cy="0.295" rx="0.295" ry="0.295" transform="translate(4.034 14.339)" fill="#f5f5f5"/>
      <ellipse id="Elipse_55-2" data-name="Elipse 55" cx="0.295" cy="0.295" rx="0.295" ry="0.295" transform="translate(7.043 0.798)" fill="#f5f5f5"/>
      <ellipse id="Elipse_56-2" data-name="Elipse 56" cx="0.157" cy="0.157" rx="0.157" ry="0.157" transform="translate(7.181)" fill="#f5f5f5"/>
      <ellipse id="Elipse_57-2" data-name="Elipse 57" cx="0.157" cy="0.157" rx="0.157" ry="0.157" transform="translate(10.822 3.354)" fill="#f5f5f5"/>
      <ellipse id="Elipse_58-2" data-name="Elipse 58" cx="0.295" cy="0.295" rx="0.295" ry="0.295" transform="translate(0.762 10.027)" fill="#f5f5f5"/>
      <ellipse id="Elipse_59-2" data-name="Elipse 59" cx="0.157" cy="0.157" rx="0.157" ry="0.157" transform="translate(0 10.433)" fill="#f5f5f5"/>
      <path id="Trazado_10767-2" data-name="Trazado 10767" d="M1456.034,840.629a.3.3,0,0,0,.14.395l1.693.891a.3.3,0,0,0,.255-.534l-1.693-.891A.3.3,0,0,0,1456.034,840.629Z" transform="translate(-1445.958 -830.7)" fill="#f5f5f5"/>
      <path id="Trazado_10768-2" data-name="Trazado 10768" d="M1370.912,799.059a.167.167,0,0,0,.079.224l.962.506a.168.168,0,1,0,.145-.3l-.962-.506A.166.166,0,0,0,1370.912,799.059Z" transform="translate(-1368.363 -793.046)" fill="#f5f5f5"/>
      <path id="Trazado_10769-2" data-name="Trazado 10769" d="M1450.972,778.913a.168.168,0,0,0,.235-.038l.669-.856a.168.168,0,1,0-.272-.2l-.669.856A.166.166,0,0,0,1450.972,778.913Z" transform="translate(-1441.294 -773.79)" fill="#f5f5f5"/>
      <ellipse id="Elipse_60-2" data-name="Elipse 60" cx="0.295" cy="0.295" rx="0.295" ry="0.295" transform="translate(12.753 11.281)" fill="#f5f5f5"/>
      <ellipse id="Elipse_61-2" data-name="Elipse 61" cx="0.157" cy="0.157" rx="0.157" ry="0.157" transform="translate(13.797 11.883)" fill="#f5f5f5"/>
    </g>
    <g id="Grupo_6406" data-name="Grupo 6406" transform="translate(527.908 278.463)">
      <path id="Trazado_11060" data-name="Trazado 11060" d="M300.741,1821.578h-7.684v-12.886a1.87,1.87,0,0,0-1.921-1.812H257.667a1.872,1.872,0,0,0-1.921,1.812v11.93h-.251a2.407,2.407,0,0,0-2.4,2.4v10.886a2.407,2.407,0,0,0,2.4,2.4h4.394a2.407,2.407,0,0,0,2.4-2.4V1829.9H272.61a3.655,3.655,0,0,1-3.6,3.076h-.984a1.643,1.643,0,1,0,0,3.285h12.894a1.638,1.638,0,0,0,.616-.121,2.9,2.9,0,0,0,.937.155h18.273a2.951,2.951,0,0,0,2.948-2.948v-8.824A2.954,2.954,0,0,0,300.741,1821.578ZM256.9,1808.692a.722.722,0,0,1,.77-.66h33.469a.722.722,0,0,1,.77.66v1.428H256.9Zm4.243,25.221a1.255,1.255,0,0,1-1.253,1.253h-4.394a1.255,1.255,0,0,1-1.253-1.253v-.773h6.9v.773Zm0-1.927h-6.9v-7.319h6.9Zm0-8.47h-6.9v-.491a1.255,1.255,0,0,1,1.253-1.253h4.395a1.255,1.255,0,0,1,1.253,1.253v.491Zm-1.253-2.894H256.9v-9.543h35.008v10.5H282.47a2.951,2.951,0,0,0-2.948,2.948v1.194H262.3v-2.694A2.41,2.41,0,0,0,259.889,1820.622Zm16.306,9.28h3.328v3.065A3.657,3.657,0,0,1,276.195,1829.9Zm-13.9-1.151v-2.071H279.52v2.071H262.294Zm5.239,5.87a.492.492,0,0,1,.491-.491h.984a4.809,4.809,0,0,0,4.769-4.228h1.249a4.805,4.805,0,0,0,4.6,4.22,2.892,2.892,0,0,0,.485.99h-12.09A.491.491,0,0,1,267.532,1834.621Zm15.473.524h-.537a1.8,1.8,0,0,1-1.8-1.8v-8.823a1.8,1.8,0,0,1,1.8-1.8h.537Zm15.705,0H284.157v-12.416H298.71Zm3.826-1.8a1.8,1.8,0,0,1-1.8,1.8h-.879v-12.416h.879a1.8,1.8,0,0,1,1.8,1.8Z" transform="translate(-253.09 -1806.88)" fill="#fff"/>
      <g id="Grupo_6405" data-name="Grupo 6405" transform="translate(3.592 10.282)">
        <g id="Grupo_3615" data-name="Grupo 3615" transform="translate(15.968 0)">
          <path id="Trazado_11042" data-name="Trazado 11042" d="M.353.038l2.391,1.59a.227.227,0,0,1,0,.379L.353,3.6A.228.228,0,0,1,0,3.408V.227A.227.227,0,0,1,.353.038Z" transform="translate(0 0.001)" fill="#ff5000"/>
        </g>
        <g id="Grupo_3616" data-name="Grupo 3616" transform="translate(33.344 9.889)">
          <path id="Trazado_11042-2" data-name="Trazado 11042" d="M.4.043,3.078,1.826a.254.254,0,0,1,0,.425L.4,4.037A.256.256,0,0,1,0,3.823V.254A.254.254,0,0,1,.4.043Z" transform="translate(0 0.001)" fill="#ff5000"/>
        </g>
        <g id="Grupo_3617" data-name="Grupo 3617" transform="translate(0 9.889)">
          <path id="Trazado_11042-3" data-name="Trazado 11042" d="M.259.028,2.015,1.2a.166.166,0,0,1,0,.278L.259,2.643A.167.167,0,0,1,0,2.5V.166A.166.166,0,0,1,.259.028Z" transform="translate(0 0.001)" fill="#ff5000"/>
        </g>
      </g>
    </g>
    <path id="Trazado_11061" data-name="Trazado 11061" d="M236.577,3489.294s-1.443-.89-2.336-.58a2.159,2.159,0,0,0-1.64,1.822,4.6,4.6,0,0,0,.431,2.334l1.022,1.669-2.909.445a16.494,16.494,0,0,0-2.83,0c-.464.159-.316,2.36-.316,2.36v1.763l1.322.323v10.651s-.185,1.336.6,1.476,18.812,0,18.812,0,.582-.154.625-1.191,0-11.26,0-11.26.555.233.811-.716a14.522,14.522,0,0,0,0-3.406l-5.983-.192a11.215,11.215,0,0,0,1.562-2.765c.186-.915-.066-2.589-.508-2.733s-1.844-.83-2.494-.58a2.729,2.729,0,0,0-1.329,1.039,12.433,12.433,0,0,0-.571,1.734l-.326,2.122-.39,1.183h-1.689a3.18,3.18,0,0,1-.875-1.922c-.007-1.046-.178-2.636-.178-2.636Z" transform="translate(275.304 -3203.68)" fill="none"/>
    <g id="Grupo_3548" data-name="Grupo 3548" transform="translate(502.989 284.773)">
      <path id="Trazado_10751" data-name="Trazado 10751" d="M1131.774,821.563h-19.162a.711.711,0,0,1-.712-.712V808.73h20.586v12.12A.712.712,0,0,1,1131.774,821.563Zm-18.518-.643h17.877a.712.712,0,0,0,.712-.712V809.372h-19.3v10.836A.712.712,0,0,0,1113.255,820.92Z" transform="translate(-1110.628 -798.29)" fill="#fff"/>
      <path id="Trazado_10752" data-name="Trazado 10752" d="M1178.683,821.593H1174.4V808.76h4.284Zm-3.642-.642h3V809.4h-3Z" transform="translate(-1164.976 -798.316)" fill="#fff"/>
      <path id="Trazado_10753" data-name="Trazado 10753" d="M1174.626,780.146h-5.716V775.12h5.716Zm-5.074-.642h4.432v-3.741h-4.432Z" transform="translate(-1160.202 -769.064)" fill="#fff"/>
      <path id="Trazado_10754" data-name="Trazado 10754" d="M1124.373,780.146h-21.6a.624.624,0,0,1-.624-.624v-3.779a.624.624,0,0,1,.624-.624h21.6a.624.624,0,0,1,.624.624v3.779A.624.624,0,0,1,1124.373,780.146Zm-20.958-.642h20.315a.623.623,0,0,0,.624-.623v-2.494a.623.623,0,0,0-.624-.623h-20.315a.623.623,0,0,0-.623.623v2.494A.623.623,0,0,0,1103.415,779.5Z" transform="translate(-1102.15 -769.064)" fill="#fff"/>
      <path id="Trazado_10755" data-name="Trazado 10755" d="M1143.918,735.391h-3.972l-.057-.022a5.416,5.416,0,0,1-1.561-1.025,3.793,3.793,0,0,1-1.235-3.425,2.5,2.5,0,0,1,1.068-1.766,2.869,2.869,0,0,1,1.846-.449,3,3,0,0,1,1.795.771,2.486,2.486,0,0,1,.791,1.927c-.044,1.915.344,2.724.677,3.064a.886.886,0,0,0,.65.283Zm-3.847-.643h2.593a5.406,5.406,0,0,1-.716-3.363,2.031,2.031,0,0,0-2-2.043,1.951,1.951,0,0,0-2.225,1.668,3.133,3.133,0,0,0,1.041,2.863A4.883,4.883,0,0,0,1140.071,734.748Z" transform="translate(-1132.496 -728.692)" fill="#fff"/>
      <path id="Trazado_10756" data-name="Trazado 10756" d="M1194.792,735.4h-3.972v-.642a.886.886,0,0,0,.65-.283c.333-.34.721-1.149.677-3.064a2.487,2.487,0,0,1,.791-1.927,2.99,2.99,0,0,1,1.795-.771,2.869,2.869,0,0,1,1.846.449,2.5,2.5,0,0,1,1.068,1.766,3.8,3.8,0,0,1-1.235,3.425,5.435,5.435,0,0,1-1.561,1.025Zm-2.72-.643h2.593a4.9,4.9,0,0,0,1.32-.887,3.132,3.132,0,0,0,1.026-2.85,1.95,1.95,0,0,0-2.225-1.668,2.031,2.031,0,0,0-2,2.043A5.412,5.412,0,0,1,1192.072,734.757Z" transform="translate(-1179.254 -728.701)" fill="#fff"/>
      <path id="Trazado_10757" data-name="Trazado 10757" d="M1194.973,753.928h-2.763v-.642c.417,0,.8-.629,1.055-1.727a2,2,0,0,1,1.977-1.548,1.438,1.438,0,0,1,1.4,1.312,2.207,2.207,0,0,1-.719,1.994,3.116,3.116,0,0,1-.9.588Zm-1.7-.643h1.576a2.581,2.581,0,0,0,.657-.449,1.564,1.564,0,0,0,.509-1.42.8.8,0,0,0-.793-.763,1.345,1.345,0,0,0-1.327,1.051A4.66,4.66,0,0,1,1193.269,753.285Z" transform="translate(-1180.463 -747.229)" fill="#fff"/>
      <path id="Trazado_10758" data-name="Trazado 10758" d="M1158.748,753.876H1155.8l-.057-.022a3.15,3.15,0,0,1-.9-.588,2.209,2.209,0,0,1-.719-1.994,1.478,1.478,0,0,1,1.521-1.321h0a1.936,1.936,0,0,1,1.182.41,1.794,1.794,0,0,1,.682,1.174c.2,1.345.891,1.7,1.231,1.7v.642Zm-2.816-.643h1.593a3.165,3.165,0,0,1-.643-1.608,1.237,1.237,0,0,0-1.227-1.033h0a.839.839,0,0,0-.886.772,1.568,1.568,0,0,0,.509,1.42A2.522,2.522,0,0,0,1155.932,753.233Z" transform="translate(-1147.326 -747.177)" fill="#fff"/>
    </g>
    <g id="Grupo_6404" data-name="Grupo 6404" transform="translate(578.667 281.376)">
      <path id="Trazado_10867" data-name="Trazado 10867" d="M879.48,1830.658l-.085,0h0a1.7,1.7,0,0,1-1.594-1.715v-2.665a.344.344,0,0,0-.344-.344h-2.7a1.7,1.7,0,0,1-1.715-1.594,1.666,1.666,0,0,1,.461-1.241,1.686,1.686,0,0,1,1.215-.522h2.74a.344.344,0,0,0,.344-.344v-2.665a1.7,1.7,0,0,1,1.594-1.715,1.666,1.666,0,0,1,1.241.461,1.686,1.686,0,0,1,.522,1.215v2.7a.344.344,0,0,0,.344.344h2.7a1.7,1.7,0,0,1,1.715,1.594,1.666,1.666,0,0,1-.461,1.241,1.686,1.686,0,0,1-1.215.522H881.5a.344.344,0,0,0-.344.344v2.705a1.676,1.676,0,0,1-1.677,1.676Zm-4.763-7.465a1.062,1.062,0,0,0-1.059,1.114,1.094,1.094,0,0,0,1.1,1.006h2.7a.962.962,0,0,1,.961.961v2.665a1.094,1.094,0,0,0,1.006,1.1h0a1.062,1.062,0,0,0,1.114-1.059v-2.7a.962.962,0,0,1,.961-.961h2.74a1.062,1.062,0,0,0,1.059-1.114,1.093,1.093,0,0,0-1.1-1.006h-2.7a.962.962,0,0,1-.961-.961v-2.7a1.062,1.062,0,0,0-1.114-1.059,1.094,1.094,0,0,0-1.006,1.1v2.665a.962.962,0,0,1-.961.961h-2.74Z" transform="translate(-869.454 -1815.395)" fill="#fff"/>
      <path id="Trazado_10868" data-name="Trazado 10868" d="M840.9,1799.381a1.114,1.114,0,0,1-1.112-1.112v-.471H839.3a1.112,1.112,0,1,1,0-2.224h.482v-.471a1.112,1.112,0,1,1,2.225,0v.471h.483a1.112,1.112,0,1,1,0,2.224h-.483v.471A1.113,1.113,0,0,1,840.9,1799.381Zm-1.595-3.19a.495.495,0,1,0,0,.99h.724a.377.377,0,0,1,.377.377v.712a.495.495,0,1,0,.99,0v-.712a.377.377,0,0,1,.377-.377h.722a.495.495,0,1,0,0-.99h-.724a.377.377,0,0,1-.377-.377v-.712a.495.495,0,0,0-.99,0v.712a.377.377,0,0,1-.377.377Z" transform="translate(-838.19 -1793.99)" fill="#fff"/>
    </g>
    <g id="Grupo_6408" data-name="Grupo 6408" transform="translate(488.497 296.405)">
      <path id="Trazado_10868-2" data-name="Trazado 10868" d="M840.9,1799.381a1.114,1.114,0,0,1-1.112-1.112v-.471H839.3a1.112,1.112,0,1,1,0-2.224h.482v-.471a1.112,1.112,0,1,1,2.225,0v.471h.483a1.112,1.112,0,1,1,0,2.224h-.483v.471A1.113,1.113,0,0,1,840.9,1799.381Zm-1.595-3.19a.495.495,0,1,0,0,.99h.724a.377.377,0,0,1,.377.377v.712a.495.495,0,1,0,.99,0v-.712a.377.377,0,0,1,.377-.377h.722a.495.495,0,1,0,0-.99h-.724a.377.377,0,0,1-.377-.377v-.712a.495.495,0,0,0-.99,0v.712a.377.377,0,0,1-.377.377Z" transform="translate(-838.19 -1793.99)" fill="#ff5000"/>
      <path id="Trazado_11062" data-name="Trazado 11062" d="M839.969,1797.532a.732.732,0,0,1-.731-.731v-.31h-.317a.731.731,0,1,1,0-1.462h.317v-.31a.731.731,0,1,1,1.462,0v.31h.317a.731.731,0,1,1,0,1.462H840.7v.31A.731.731,0,0,1,839.969,1797.532Zm-1.048-2.1a.325.325,0,1,0,0,.65h.476a.248.248,0,0,1,.247.247v.468a.325.325,0,0,0,.65,0v-.468a.248.248,0,0,1,.247-.247h.475a.325.325,0,1,0,0-.65h-.476a.248.248,0,0,1-.247-.247v-.468a.325.325,0,0,0-.65,0v.468a.248.248,0,0,1-.247.247Z" transform="translate(-832.554 -1789.294)" fill="#ff5000"/>
    </g>
  </g>
</svg>
